<svg xmlns="http://www.w3.org/2000/svg" width="48" height="48" viewBox="0 0 48 48" fill="none">
  <defs>
    <linearGradient id="flameGrad" x1="0" y1="1" x2="0" y2="0">
      <stop offset="0%" stop-color="#EA580C"/>
      <stop offset="50%" stop-color="#F97316"/>
      <stop offset="100%" stop-color="#FB923C"/>
    </linearGradient>
    <linearGradient id="coreGrad" x1="0" y1="1" x2="0" y2="0">
      <stop offset="0%" stop-color="#FBBF24"/>
      <stop offset="100%" stop-color="#FEF08A"/>
    </linearGradient>
  </defs>
  <!-- Outer flame -->
  <path d="M24 46 Q6 34 12 20 Q16 8 22 3 Q24 1 24 7 Q24 1 26 3 Q32 8 36 20 Q42 34 24 46Z" fill="url(#flameGrad)"/>
  <!-- Inner flame core -->
  <path d="M24 38 Q14 30 17 20 Q19 12 23 6 Q24 4 24 9 Q24 4 25 6 Q29 12 31 20 Q34 30 24 38Z" fill="url(#coreGrad)" opacity="0.85"/>
  <!-- Center highlight -->
  <path d="M24 32 Q20 28 21 23 Q22 18 23 15 Q24 13 24 17 Q24 13 25 15 Q26 18 27 23 Q28 28 24 32Z" fill="#FFF7ED" opacity="0.6"/>
  <circle cx="24" cy="21" r="2" fill="#FFFFFF" opacity="0.8"/>
</svg>
