<svg xmlns="http://www.w3.org/2000/svg" width="220" height="56" viewBox="0 0 220 56" fill="none">
  <defs>
    <linearGradient id="flameOuter" x1="0" y1="1" x2="0" y2="0">
      <stop offset="0%" stop-color="#EA580C"/>
      <stop offset="50%" stop-color="#F97316"/>
      <stop offset="100%" stop-color="#FB923C"/>
    </linearGradient>
    <linearGradient id="flameInner" x1="0" y1="1" x2="0" y2="0">
      <stop offset="0%" stop-color="#FBBF24"/>
      <stop offset="100%" stop-color="#FEF08A"/>
    </linearGradient>
  </defs>
  <!-- Flame icon -->
  <g transform="translate(4,4)">
    <!-- Outer flame -->
    <path d="M24 46 Q6 34 12 20 Q16 8 22 3 Q24 1 24 7 Q24 1 26 3 Q32 8 36 20 Q42 34 24 46Z" fill="url(#flameOuter)"/>
    <!-- Inner flame core -->
    <path d="M24 38 Q14 30 17 20 Q19 12 23 6 Q24 4 24 9 Q24 4 25 6 Q29 12 31 20 Q34 30 24 38Z" fill="url(#flameInner)" opacity="0.85"/>
    <!-- Center bright spot -->
    <path d="M24 32 Q20 28 21 23 Q22 18 23 15 Q24 13 24 17 Q24 13 25 15 Q26 18 27 23 Q28 28 24 32Z" fill="#FFF7ED" opacity="0.6"/>
    <circle cx="24" cy="21" r="2" fill="#FFFFFF" opacity="0.8"/>
  </g>
  <!-- FlarePost text -->
  <text x="72" y="34" font-family="Inter, system-ui, -apple-system, sans-serif" font-size="32" font-weight="700" fill="#1E293B" letter-spacing="-0.5">FlarePost</text>
  <text x="72" y="48" font-family="Inter, system-ui, -apple-system, sans-serif" font-size="11" font-weight="500" fill="#64748B" letter-spacing="0.8">AI-Powered Content Platform</text>
</svg>
